<?xml version="1.0" standalone="no"?>
<!DOCTYPE svg PUBLIC "-//W3C//DTD SVG 20010904//EN"
 "http://www.w3.org/TR/2001/REC-SVG-20010904/DTD/svg10.dtd">
<svg version="1.0" xmlns="http://www.w3.org/2000/svg"
 width="512.000000pt" height="512.000000pt" viewBox="0 0 512.000000 512.000000"
 preserveAspectRatio="xMidYMid meet">
<metadata>
Created by potrace 1.16, written by Peter Selinger 2001-2019
</metadata>
<g transform="translate(0.000000,512.000000) scale(0.100000,-0.100000)"
fill="#000000" stroke="none">
<path d="M4692 1920 l-2 -55 -160 -160 -160 -160 0 -250 c0 -291 -8 -339 -70
-421 -30 -40 -56 -61 -107 -86 l-67 -33 -276 -3 -275 -3 -160 -159 -160 -159
-55 -4 c-30 -2 177 -3 460 -3 l515 2 77 27 c206 72 350 219 421 431 19 57 21
91 24 511 2 248 3 479 1 515 l-4 65 -2 -55z"/>
</g>
</svg>
